<?xml version="1.0" encoding="utf-8" ?>
<svg baseProfile="full" height="300mm" version="1.1" viewBox="0,0,200,300" width="200mm" xmlns="http://www.w3.org/2000/svg" xmlns:ev="http://www.w3.org/2001/xml-events" xmlns:xlink="http://www.w3.org/1999/xlink"><defs /><rect fill="#222222" height="300" width="200" x="0" y="0" /><text fill="#FFFFFF" style="font-size:12px; font-family:Arial; font-weight:bold;" x="10" y="20">Over 5km Runs</text><text fill="#FFFFFF" style="font-size:4px; font-family:Arial" x="10" y="280">ATHLETE</text><text fill="#FFFFFF" style="font-size:9px; font-family:Arial" x="10" y="290">777</text><text fill="#FFFFFF" style="font-size:4px; font-family:Arial" x="120" y="280">STATISTICS</text><text fill="#FFFFFF" style="font-size:3px; font-family:Arial" x="120" y="285">Number: 1</text><text fill="#FFFFFF" style="font-size:3px; font-family:Arial" x="120" y="290">Weekly: 1.0</text><text fill="#FFFFFF" style="font-size:3px; font-family:Arial" x="141" y="285">Total: 5.7 km</text><text fill="#FFFFFF" style="font-size:3px; font-family:Arial" x="141" y="290">Avg: 5.7 km</text><text fill="#FFFFFF" style="font-size:3px; font-family:Arial" x="167" y="285">Min: 5.7 km</text><text fill="#FFFFFF" style="font-size:3px; font-family:Arial" x="167" y="290">Max: 5.7 km</text><polyline fill="none" points="101.26514062099159,231.0 88.53466311702505,213.95333111082437 84.02759965276346,193.78254283906426 84.58109867479652,185.482053244079 87.5858076508157,179.41283341200324 91.06494435993955,175.75343264162075 108.38155661709607,167.36353522143327 119.37246576696634,158.79505495697958 128.54473527288064,139.42644233762985 130.91687393840402,131.3040065940586 122.61438860977069,111.042251537845 117.7910399902612,103.09810068190563 110.12112497212365,80.42567424755543 107.74898630613461,81.13977444823831 106.87920212931931,78.81894688558532 103.95356444176286,79.08673496288247 100.5534990215674,76.76590251998277 96.36272071301937,76.05179912003223 94.38593849167228,73.3739067185088 80.07403521053493,70.60674352047499 79.91589263267815,71.49937766726362 76.99025494558737,69.0 70.1110528158024,72.83832735690521 69.08312606113032,76.94442828849424 69.32033992744982,87.74517654778901 75.01347272470593,87.56665275449632 77.30654010083526,89.53041268751258 98.81393066700548,84.08543225663016 104.90241990797222,81.22903693671105 108.06527146184817,81.49682435300201 115.73518647998571,104.07996552420082 122.85160247609019,116.30856311117532 124.90745598590001,117.11189627839485 128.22845011763275,123.0029859765782 127.91216496238485,128.09071666095406 130.36337491637096,131.3040065940586 128.8610204285942,137.99832666217117 122.93067376501858,151.29757305898238 119.76782221114263,155.22483266005293 120.16317865531892,157.6347341419896 117.63289741240442,161.65122339787195 92.17194240400568,175.75343264162075 88.13930667284876,178.78805864130845 85.21366898575798,183.6077393797459 83.47410063073039,193.69329063780606 88.21837796177715,211.0080649870215 91.93472853722051,218.59433849714696 97.15343360090628,225.2880603162339" stroke="#4DD2FF" stroke-linecap="round" stroke-linejoin="round" stroke-width="0.5"><title>2020-08-13 5.7km</title></polyline></svg>