<?xml version="1.0" encoding="utf-8" ?>
<svg baseProfile="full" height="200mm" version="1.1" viewBox="0,0,200,200" width="200mm" xmlns="http://www.w3.org/2000/svg" xmlns:ev="http://www.w3.org/2001/xml-events" xmlns:xlink="http://www.w3.org/1999/xlink"><defs /><rect fill="#1a1a1a" height="200" width="200" x="0" y="0" /><text alignment-baseline="middle" fill="#e1ed5e" style="dominant-baseline: central; font-size:9.0px; font-family:Arial;" text-anchor="middle" x="100.0" y="100.0">2016</text><line stroke="#e1ed5e" stroke-width="0.3" x1="100.0" x2="100.0" y1="15.0" y2="10.0" /><path d="M 100.0 14.0 a86.0,86.0 0 0,1 42.35913384403234,11.155469271406648" fill="none" id="id1" stroke="none" /><text fill="#e1ed5e" style="font-size:6.75px; font-family:Arial;" text-anchor="middle"><textPath startOffset="22.145653131862478" xlink:href="#id1">January</textPath></text><line stroke="#e1ed5e" stroke-width="0.3" x1="143.13028292997686" x2="145.6673583964461" y1="26.7553504044142" y2="22.446841604673864" /><path d="M 143.63769802327073 25.89364864446614 a86.0,86.0 0 0,1 29.32050498858742,28.57503671076993" fill="none" id="id2" stroke="none" /><text fill="#e1ed5e" style="font-size:6.75px; font-family:Arial;" text-anchor="middle"><textPath startOffset="20.669276256404974" xlink:href="#id2">February</textPath></text><line stroke="#e1ed5e" stroke-width="0.3" x1="172.87174338648825" x2="177.1583165268699" y1="56.24261187166439" y2="53.66864786411523" /><path d="M 173.72905801456457 55.72781907015455 a86.0,86.0 0 0,1 12.242430191666344,42.057860355516425" fill="none" id="id3" stroke="none" /><text fill="#e1ed5e" style="font-size:6.75px; font-family:Arial;" text-anchor="middle"><textPath startOffset="22.145653131862474" xlink:href="#id3">March</textPath></text><line stroke="#e1ed5e" stroke-width="0.3" x1="184.99686870605535" x2="189.99668451229388" y1="99.2704041080226" y2="99.22748670261217" /><path d="M 185.99683186730306 99.26182062694052 a86.0,86.0 0 0,1 -10.086455211305974,41.156179273409016" fill="none" id="id4" stroke="none" /><text fill="#e1ed5e" style="font-size:6.75px; font-family:Arial;" text-anchor="middle"><textPath startOffset="21.40746469413373" xlink:href="#id4">April</textPath></text><line stroke="#e1ed5e" stroke-width="0.3" x1="174.33088141563837" x2="178.70328620479359" y1="141.23008692659167" y2="143.65538615756765" /><path d="M 175.20536237346943 141.71514677278685 a86.0,86.0 0 0,1 -30.301960400862466,31.631185727798858" fill="none" id="id5" stroke="none" /><text fill="#e1ed5e" style="font-size:6.75px; font-family:Arial;" text-anchor="middle"><textPath startOffset="22.145653131862474" xlink:href="#id5">May</textPath></text><line stroke="#e1ed5e" stroke-width="0.3" x1="143.1302829299769" x2="145.66735839644613" y1="173.24464959558577" y2="177.55315839532614" /><path d="M 143.63769802327073 174.10635135553383 a86.0,86.0 0 0,1 -40.68552437913181,11.842963189579606" fill="none" id="id6" stroke="none" /><text fill="#e1ed5e" style="font-size:6.75px; font-family:Arial;" text-anchor="middle"><textPath startOffset="21.407464694133747" xlink:href="#id6">June</textPath></text><line stroke="#e1ed5e" stroke-width="0.3" x1="101.45913802915013" x2="101.54496967792366" y1="184.9874750549273" y2="189.98673829345242" /><path d="M 101.47630435890484 185.9873277026323 a86.0,86.0 0 0,1 -42.54439059252881,-10.42667462771756" fill="none" id="id7" stroke="none" /><text fill="#e1ed5e" style="font-size:6.75px; font-family:Arial;" text-anchor="middle"><textPath startOffset="22.145653131862474" xlink:href="#id7">July</textPath></text><path d="M 96.41257539226777 120.69131181640829 l -10.762273823196683 62.07393544922487 a84.0,84.0 0 0,0 -1.4186610657957712,-0.2585273042745362 l 11.826269622543512 -61.88003997101897" fill="#4dd2ff" stroke="none" /><path d="M 96.05791012581884 120.62667999033965 l -7.732373718180975 40.45904668364793 a62.19131051407831,62.19131051407831 0 0,0 -1.0468974683886743,-0.209408813751324 l 8.425767672100609 -40.32034847323374" fill="#e4ff1a" stroke="none" /><path d="M 95.70440661134978 120.55596938700252 l -6.097343686964843 29.17799680538815 a50.80827230169859,50.80827230169859 0 0,0 -0.852218240538437,-0.1857369990164936 l 6.597324344122416 -29.06902834823794" fill="#ff0000" stroke="none" /><path d="M 95.35216902796893 120.47920084513623 l -11.059554987510014 48.73043989981213 a70.9696861041868,70.9696861041868 0 0,0 -1.1857609958634396,-0.2798363663639719 l 11.894448137113342 -48.53340738980194" fill="#34ff2f" stroke="none" /><path d="M 93.95794788825049 120.11202640906438 l -13.367118738365694 44.49479086026391 a67.4592969927892,67.4592969927892 0 0,0 -1.1062019437791142,-0.3427041898740673 l 14.128961315016442 -44.25877008258319" fill="#76ff27" stroke="none" /><path d="M 93.61358852112213 120.00534299687104 l -14.001191707439867 43.8585336066532 a67.03916093234552,67.03916093234552 0 0,0 -1.0933042050715256,-0.35939080798785966 l 14.752018650159137 -43.611721877263314" fill="#7fff26" stroke="none" /><path d="M 93.27111125876986 119.89276391827306 l -9.709353760374354 28.703979153445495 a51.30164961987266,51.30164961987266 0 0,0 -0.8318055038159687,-0.2893451329902235 l 10.200665036235343 -28.53307558788668" fill="#ff0e01" stroke="none" /><path d="M 92.93061703081489 119.77432235084164 l -10.062896481035354 28.14771241938821 a50.89240037254645,50.89240037254645 0 0,0 -0.8201209706872229,-0.30115978029546053 l 10.544606603376696 -27.970821790084027" fill="#ff0300" stroke="none" /><path d="M 92.59220618246901 119.65005319985036 l -10.620738586036872 28.172770919113805 a51.108223284906686,51.108223284906686 0 0,0 -0.8182858230028455,-0.31653053511909346 l 11.102796671533246 -27.98630049585667" fill="#ff0801" stroke="none" /><path d="M 91.59046798132341 119.24265499422711 l -11.943063765349875 27.328067138609786 a50.823816416340435,50.823816416340435 0 0,0 -0.796449371349685,-0.3562416733776881 l 12.410426539555194 -27.119021714322244" fill="#ff0100" stroke="none" /><path d="M 91.26138138417905 119.09545874513695 l -12.39936625745234 27.094853001864386 a50.79723716687651,50.79723716687651 0 0,0 -0.7898033923396097,-0.3696678671260846 l 12.862658363663439 -26.878008903167775" fill="#ff0000" stroke="none" /><line stroke="#e1ed5e" stroke-width="0.3" x1="58.13341422392154" x2="55.67067388415222" y1="173.97424548756322" y2="178.32567169271397" /><path d="M 57.64086615596768 174.84453072859336 a86.0,86.0 0 0,1 -31.369924170532247,-30.572349798747897" fill="none" id="id8" stroke="none" /><text fill="#e1ed5e" style="font-size:6.75px; font-family:Arial;" text-anchor="middle"><textPath startOffset="22.145653131862474" xlink:href="#id8">August</textPath></text><path d="M 88.1277618465304 117.32195027204791 l -25.955595845828977 37.86999003144404 a66.91109997259579,66.91109997259579 0 0,0 -0.9418690288982022,-0.6574977314060205 l 26.601859965900946 -37.418847484232884" fill="#81ff25" stroke="none" /><path d="M 87.83215693770417 117.11559508785305 l -18.221504864183345 25.630828533045104 a52.447775927811115,52.447775927811115 0 0,0 -0.7293212635510793,-0.5279723511589324 l 18.658807138108376 -25.314255410513105" fill="#ff2c04" stroke="none" /><path d="M 87.2517909369889 116.68781488649013 l -18.154016428323878 23.764190256432222 a50.904933556584965,50.904933556584965 0 0,0 -0.689858945676597,-0.53643848873265 l 18.559285318635702 -23.44905071607878" fill="#ff0300" stroke="none" /><path d="M 86.96720088162412 116.46651593811092 l -18.50000521122088 23.374152236888477 a50.80941437882399,50.80941437882399 0 0,0 -0.6792716164550056,-0.5471731311013649 l 18.898527598031148 -23.0531308119937" fill="#ff0000" stroke="none" /><path d="M 86.40962598614128 116.0094264158162 l -20.300323700474134 23.913730274720656 a52.368290326317165,52.368290326317165 0 0,0 -0.6803402005121572,-0.5876616613422648 l 20.707843380749154 -23.561724480913668" fill="#ff2a04" stroke="none" /><path d="M 84.58840730492382 114.26474011684316 l -22.082911457529935 20.439613166364264 a51.09040984818449,51.09040984818449 0 0,0 -0.5902214711476296,-0.6487567883747124 l 22.430530629519442 -20.05751880243188" fill="#ff0801" stroke="none" /><path d="M 84.1078160697243 113.72728997021213 l -22.60047725665714 19.521753972170043 a50.86436757037747,50.86436757037747 0 0,0 -0.5650920703781716,-0.6656770380016849 l 22.932263890542423 -19.1309101517188" fill="#ff0200" stroke="none" /><line stroke="#e1ed5e" stroke-width="0.3" x1="26.387840678322732" x2="22.057713659400548" y1="142.50000000000003" y2="145.00000000000006" /><path d="M 25.521815274538298 143.00000000000003 a86.0,86.0 0 0,1 -11.493303480769221,-40.785679425670985" fill="none" id="id9" stroke="none" /><text fill="#e1ed5e" style="font-size:6.75px; font-family:Arial;" text-anchor="middle"><textPath startOffset="21.40746469413373" xlink:href="#id9">September</textPath></text><line stroke="#e1ed5e" stroke-width="0.3" x1="15.003131293944662" x2="10.003315487706104" y1="100.72959589197737" y2="100.7725132973878" /><path d="M 14.003168132696942 100.73817937305945 a86.0,86.0 0 0,1 10.791469493833604,-42.45332614584628" fill="none" id="id10" stroke="none" /><text fill="#e1ed5e" style="font-size:6.75px; font-family:Arial;" text-anchor="middle"><textPath startOffset="22.145653131862435" xlink:href="#id10">October</textPath></text><line stroke="#e1ed5e" stroke-width="0.3" x1="26.387840678322718" x2="22.05771365940052" y1="57.49999999999999" y2="54.99999999999999" /><path d="M 25.521815274538284 56.99999999999999 a86.0,86.0 0 0,1 29.574782752854787,-30.34633250058573" fill="none" id="id11" stroke="none" /><text fill="#e1ed5e" style="font-size:6.75px; font-family:Arial;" text-anchor="middle"><textPath startOffset="21.40746469413373" xlink:href="#id11">November</textPath></text><line stroke="#e1ed5e" stroke-width="0.3" x1="56.869717070023135" x2="54.33264160355391" y1="26.7553504044142" y2="22.446841604673864" /><path d="M 56.362301976729285 25.89364864446614 a86.0,86.0 0 0,1 42.16139366436587,-11.88097634709845" fill="none" id="id12" stroke="none" /><text fill="#e1ed5e" style="font-size:6.75px; font-family:Arial;" text-anchor="middle"><textPath startOffset="22.145653131862474" xlink:href="#id12">December</textPath></text></svg>