<?xml version="1.0" encoding="utf-8" ?>
<svg baseProfile="full" height="200mm" version="1.1" viewBox="0,0,200,200" width="200mm" xmlns="http://www.w3.org/2000/svg" xmlns:ev="http://www.w3.org/2001/xml-events" xmlns:xlink="http://www.w3.org/1999/xlink"><defs /><rect fill="#1a1a1a" height="200" width="200" x="0" y="0" /><text alignment-baseline="middle" fill="#e1ed5e" style="dominant-baseline: central; font-size:9.0px; font-family:Arial;" text-anchor="middle" x="100.0" y="100.0">2018</text><line stroke="#e1ed5e" stroke-width="0.3" x1="100.0" x2="100.0" y1="15.0" y2="10.0" /><path d="M 100.0 14.0 a86.0,86.0 0 0,1 42.46469731375804,11.215312516191453" fill="none" id="id25" stroke="none" /><text fill="#e1ed5e" style="font-size:6.75px; font-family:Arial;" text-anchor="middle"><textPath startOffset="22.20632615414155" xlink:href="#id25">January</textPath></text><line stroke="#e1ed5e" stroke-width="0.3" x1="143.23703022742887" x2="145.7803849466894" y1="26.81831364943548" y2="22.513508569990506" /><path d="M 143.74570117128098 25.957352633546492 a86.0,86.0 0 0,1 28.547481713284135,27.462654790039103" fill="none" id="id26" stroke="none" /><text fill="#e1ed5e" style="font-size:6.75px; font-family:Arial;" text-anchor="middle"><textPath startOffset="19.985693538727396" xlink:href="#id26">February</textPath></text><line stroke="#e1ed5e" stroke-width="0.3" x1="172.23445277983987" x2="176.4835382374775" y1="55.19839476539836" y2="52.563006222186495" /><path d="M 173.08426987136738 54.67131705675599 a86.0,86.0 0 0,1 12.851231095245387,41.99856678651699" fill="none" id="id27" stroke="none" /><text fill="#e1ed5e" style="font-size:6.75px; font-family:Arial;" text-anchor="middle"><textPath startOffset="22.20632615414155" xlink:href="#id27">March</textPath></text><line stroke="#e1ed5e" stroke-width="0.3" x1="184.98032266829074" x2="189.97916517819016" y1="98.17113171792111" y2="98.06355123074" /><path d="M 185.9800911702706 98.14961562048488 a86.0,86.0 0 0,1 -9.607161424134198,41.387399972396054" fill="none" id="id28" stroke="none" /><text fill="#e1ed5e" style="font-size:6.75px; font-family:Arial;" text-anchor="middle"><textPath startOffset="21.466115282336823" xlink:href="#id28">April</textPath></text><line stroke="#e1ed5e" stroke-width="0.3" x1="174.80103733775053" x2="179.2010983576182" y1="140.37084112569926" y2="142.7455964860345" /><path d="M 175.68104954172406 140.8457921977663 a86.0,86.0 0 0,1 -30.038265399797805,32.042727171017184" fill="none" id="id29" stroke="none" /><text fill="#e1ed5e" style="font-size:6.75px; font-family:Arial;" text-anchor="middle"><textPath startOffset="22.206326154141568" xlink:href="#id29">May</textPath></text><line stroke="#e1ed5e" stroke-width="0.3" x1="143.8653032363475" x2="146.44561519142675" y1="172.8068346515853" y2="177.08958963109032" /><path d="M 144.38136562736335 173.6633856474863 a86.0,86.0 0 0,1 -40.68145358897372,12.25698825130547" fill="none" id="id30" stroke="none" /><text fill="#e1ed5e" style="font-size:6.75px; font-family:Arial;" text-anchor="middle"><textPath startOffset="21.466115282336833" xlink:href="#id30">June</textPath></text><line stroke="#e1ed5e" stroke-width="0.3" x1="102.19456741930631" x2="102.32365962044197" y1="184.97166512339345" y2="189.96999836594603" /><path d="M 102.22038585953345 185.97133177190398 a86.0,86.0 0 0,1 -42.740103519485714,-10.115201625700543" fill="none" id="id31" stroke="none" /><text fill="#e1ed5e" style="font-size:6.75px; font-family:Arial;" text-anchor="middle"><textPath startOffset="22.20632615414155" xlink:href="#id31">July</textPath></text><path d="M 98.37488393609728 120.93702456842531 l -3.293149836607138 42.426975259212526 a63.55458924125784,63.55458924125784 0 0,0 -1.0899784023257757,-0.09404792294259529 l 4.022972556674455 -42.364003083991264" fill="#ff830c" stroke="none" /><path d="M 98.01472825383883 120.90594882070398 l -3.680238116978176 38.754830350214114 a59.9291796480678,59.9291796480678 0 0,0 -1.0261228339815553,-0.10636182730531703 l 4.3467935475653245 -38.68573915445304" fill="#ff0000" stroke="none" /><path d="M 94.11515582081647 120.15858648285463 l -11.534215504668557 39.51055859477367 a62.15971778060656,62.15971778060656 0 0,0 -1.0245254240761692,-0.30868110596394394 l 12.212615903184972 -39.306162119704" fill="#ff5207" stroke="none" /><path d="M 93.76903079525671 120.05430185196036 l -12.16221660736582 39.143952572798504 a61.98985893883978,61.98985893883978 0 0,0 -1.0162754882602907,-0.3253793184187929 l 12.83421344071705 -38.928800407720004" fill="#ff4c07" stroke="none" /><path d="M 93.42475214034765 119.94407469862007 l -13.101197576464827 39.73861802377892 a62.84255179093855,62.84255179093855 0 0,0 -1.024424168452296,-0.34754029812855297 l 13.783291477854348 -39.507214738752246" fill="#ff6a09" stroke="none" /><path d="M 93.08242187328487 119.8279376855182 l -14.114305376785234 40.45600387287058 a63.84742542593275,63.84742542593275 0 0,0 -1.0345728560284362,-0.37096101783266544 l 14.808597793443395 -40.20705531399796" fill="#ff8d0d" stroke="none" /><path d="M 92.40401165467489 119.57807347666478 l -14.57154504227668 37.55703228294156 a61.284743995972136,61.284743995972136 0 0,0 -0.9802025651627294,-0.39004282975371624 l 15.215868683481268 -37.300642608781786" fill="#ff3204" stroke="none" /><path d="M 91.07499286063937 119.00905698771935 l -25.563560532473858 54.446923277825 a81.14950607876025,81.14950607876025 0 0,0 -1.2593140966240628,-0.6045472947711813 l 26.496987297098165 -53.99882170655425" fill="#44ffe6" stroke="none" /><path d="M 90.7491055286396 118.85261126421891 l -27.752683414081172 56.55783379265673 a84.0,84.0 0 0,0 -1.292584369268958,-0.6481286363627916 l 28.72212169103289 -56.07173731538464" fill="#4dd2ff" stroke="none" /><line stroke="#e1ed5e" stroke-width="0.3" x1="58.666819895761336" x2="56.23545636021788" y1="174.27360380694188" y2="178.64263932499728" /><path d="M 58.180547188652646 175.14741091055294 a86.0,86.0 0 0,1 -31.652253787137756,-30.449443065178592" fill="none" id="id32" stroke="none" /><text fill="#e1ed5e" style="font-size:6.75px; font-family:Arial;" text-anchor="middle"><textPath startOffset="22.20632615414155" xlink:href="#id32">August</textPath></text><path d="M 89.7882731507175 118.34994917583269 l -20.797156432505407 37.371422989553466 a63.768504438923586,63.768504438923586 0 0,0 -0.9545575239031475,-0.5420226744932736 l 21.43736272332976 -37.00789714926556" fill="#ff8a0c" stroke="none" /><path d="M 89.4739219176387 118.17145234162733 l -20.96892645684899 36.19922299495646 a62.8339529830893,62.8339529830893 0 0,0 -0.9312354742204487,-0.5501903325218036 l 21.588929802097823 -35.8329140901409" fill="#ff6a09" stroke="none" /><path d="M 88.24862548938628 117.40417183066458 l -24.307628654369086 36.000396848430604 a64.43834002402943,64.43834002402943 0 0,0 -0.9139293305945917,-0.6286089272355181 l 24.92371486958657 -35.576647131829986" fill="#ffa10e" stroke="none" /><path d="M 87.95078237400918 117.19931262002967 l -25.579522112295493 36.51276050748187 a65.58131482325462,65.58131482325462 0 0,0 -0.9189899407725018,-0.655674922044908 l 26.20423938091688 -36.06704132359275" fill="#ffc712" stroke="none" /><path d="M 85.97065885151581 115.62618273729859 l -27.596234266054502 30.73728088430299 a62.30777870846481,62.30777870846481 0 0,0 -0.7919035337623229,-0.7233851022403167 l 28.12123734928368 -30.257703015476096" fill="#ff5708" stroke="none" /><path d="M 85.70375840098266 115.38237550388516 l -28.83404514598177 31.024665235229065 a63.354834581645406,63.354834581645406 0 0,0 -0.7924307029855098,-0.7492926907034203 l 29.363811683358094 -30.52373790777971" fill="#ff7c0b" stroke="none" /><path d="M 84.19399662182784 113.82643327865904 l -31.86697134936103 27.875898961488886 a63.33874827970395,63.33874827970395 0 0,0 -0.7107738317391994,-0.8267905435195275 l 32.34208769067101 -27.323231318807828" fill="#ff7b0b" stroke="none" /><path d="M 83.95833913139862 113.55231037782056 l -32.32370838945537 27.30770412392183 a63.314688094870846,63.314688094870846 0 0,0 -0.6961721307904175,-0.838584178711509 l 32.78897652013932 -26.747258688096558" fill="#ff7b0b" stroke="none" /><path d="M 82.85270091963577 112.12312394758628 l -35.81249084710332 25.319396563648827 a64.85893686606153,64.85893686606153 0 0,0 -0.6366648765713503,-0.9171632394113272 l 36.2430166308368 -24.69919206205049" fill="#ffaf10" stroke="none" /><line stroke="#e1ed5e" stroke-width="0.3" x1="26.63291911575756" x2="22.317208475507996" y1="142.92168965132927" y2="145.44649492493687" /><path d="M 25.769776987707644 143.4266507060508 a86.0,86.0 0 0,1 -11.730757126820373,-40.83630448921669" fill="none" id="id33" stroke="none" /><text fill="#e1ed5e" style="font-size:6.75px; font-family:Arial;" text-anchor="middle"><textPath startOffset="21.46611528233685" xlink:href="#id33">September</textPath></text><path d="M 81.51974371655577 109.97397251340807 l -36.27429686299078 19.577587794537052 a62.220220241492996,62.220220241492996 0 0,0 -0.5005690546426388,-0.9468880070102593 l 36.605918425858306 -18.950284772440668" fill="#ff5407" stroke="none" /><path d="M 81.35079622478065 109.6543875284942 l -36.591243395195626 18.942687749279912 a62.20369537278382,62.20369537278382 0 0,0 -0.4840671734300085,-0.9551104566420631 l 36.9118892384119 -18.310023080935164" fill="#ff5307" stroke="none" /><path d="M 81.18737489456691 109.33194174019688 l -37.04810527419063 18.37759260421241 a62.355749471311896,62.355749471311896 0 0,0 -0.46869771359024015,-0.9656561136729754 l 37.35895624439559 -17.73714753457415" fill="#ff5908" stroke="none" /><line stroke="#e1ed5e" stroke-width="0.3" x1="15.007084014347285" x2="10.007500721073583" y1="101.09737516637583" y2="101.16192664675087" /><path d="M 14.007167355692545 101.11028546245083 a86.0,86.0 0 0,1 10.666146001902534,-42.60595125391555" fill="none" id="id34" stroke="none" /><text fill="#e1ed5e" style="font-size:6.75px; font-family:Arial;" text-anchor="middle"><textPath startOffset="22.20632615414155" xlink:href="#id34">October</textPath></text><line stroke="#e1ed5e" stroke-width="0.3" x1="26.266209847984243" x2="21.928928074336255" y1="57.711370442889674" y2="55.22380399835377" /><path d="M 25.398753493254645 57.213857153982495 a86.0,86.0 0 0,1 29.58750427330803,-30.492523968695096" fill="none" id="id35" stroke="none" /><text fill="#e1ed5e" style="font-size:6.75px; font-family:Arial;" text-anchor="middle"><textPath startOffset="21.46611528233685" xlink:href="#id35">November</textPath></text><line stroke="#e1ed5e" stroke-width="0.3" x1="56.762969772571076" x2="54.21961505331055" y1="26.818313649435495" y2="22.513508569990535" /><path d="M 56.25429882871897 25.957352633546506 a86.0,86.0 0 0,1 42.265352541879196,-11.944610805530505" fill="none" id="id36" stroke="none" /><text fill="#e1ed5e" style="font-size:6.75px; font-family:Arial;" text-anchor="middle"><textPath startOffset="22.20632615414155" xlink:href="#id36">December</textPath></text></svg>